<svg width="204" height="50" viewBox="0 0 204 50" fill="none" xmlns="http://www.w3.org/2000/svg">
<g clip-path="url(#clip0_35_19)">
<path d="M101.72 25.72C102.333 25.72 102.773 25.8533 103.04 26.12C103.333 26.3867 103.48 26.7333 103.48 27.16C103.48 27.8533 103.267 28.4667 102.84 29C102.44 29.5333 101.8 29.8133 100.92 29.84C98.8133 29.8667 96.92 29.7067 95.24 29.36C93.3733 33.3333 91.12 36.64 88.48 39.28C85.8667 41.8933 83.28 43.2 80.72 43.2C78.3733 43.2 76.6133 41.96 75.44 39.48C74.2667 36.9733 73.6 33.6267 73.44 29.44C71.84 34.08 70.0267 37.5333 68 39.8C66 42.0667 63.8667 43.2 61.6 43.2C59.04 43.2 57.1067 41.6133 55.8 38.44C54.4933 35.24 53.84 30.9467 53.84 25.56C53.84 21.64 54.1867 17.3333 54.88 12.64C55.0667 11.3067 55.4 10.3867 55.88 9.88C56.3867 9.34666 57.1733 9.08 58.24 9.08C59.04 9.08 59.6533 9.25333 60.08 9.6C60.5333 9.94667 60.76 10.5867 60.76 11.52C60.76 11.7067 60.7333 12.0667 60.68 12.6C59.88 18.0667 59.48 22.72 59.48 26.56C59.48 30.1333 59.7867 32.8933 60.4 34.84C61.0133 36.7867 61.84 37.76 62.88 37.76C63.8133 37.76 64.9333 36.7867 66.24 34.84C67.5733 32.8667 68.8933 29.96 70.2 26.12C71.5067 22.2533 72.6133 17.6533 73.52 12.32C73.7333 11.0933 74.12 10.2533 74.68 9.8C75.2667 9.32 76.0533 9.08 77.04 9.08C77.8667 9.08 78.4667 9.26666 78.84 9.64C79.24 9.98666 79.44 10.52 79.44 11.24C79.44 11.6667 79.4133 12 79.36 12.24C78.6133 16.5867 78.24 20.9333 78.24 25.28C78.24 28.24 78.3333 30.6 78.52 32.36C78.7333 34.12 79.12 35.4667 79.68 36.4C80.2667 37.3067 81.1067 37.76 82.2 37.76C83.48 37.76 84.9067 36.8 86.48 34.88C88.0533 32.9333 89.4933 30.52 90.8 27.64C89.1733 26.6267 87.9467 25.32 87.12 23.72C86.2933 22.0933 85.88 20.2267 85.88 18.12C85.88 16.0133 86.2 14.24 86.84 12.8C87.5067 11.3333 88.4 10.24 89.52 9.52C90.6667 8.8 91.9333 8.44 93.32 8.44C95.0267 8.44 96.3733 9.05333 97.36 10.28C98.3733 11.5067 98.88 13.1867 98.88 15.32C98.88 18.3333 98.2267 21.68 96.92 25.36C98.28 25.6 99.88 25.72 101.72 25.72ZM89.92 17.84C89.92 20.4533 90.76 22.3867 92.44 23.64C93.48 20.6533 94 18.1867 94 16.24C94 15.12 93.8533 14.3067 93.56 13.8C93.2667 13.2667 92.8667 13 92.36 13C91.64 13 91.0533 13.4267 90.6 14.28C90.1467 15.1067 89.92 16.2933 89.92 17.84ZM102.91 43.2C101.257 43.2 99.937 42.6 98.9503 41.4C97.9636 40.2 97.4703 38.6267 97.4703 36.68C97.4703 34.5467 97.9636 32.5333 98.9503 30.64C99.937 28.72 101.244 27.1867 102.87 26.04C104.524 24.8667 106.27 24.28 108.11 24.28C108.697 24.28 109.084 24.4 109.27 24.64C109.484 24.8533 109.657 25.2533 109.79 25.84C110.35 25.7333 110.937 25.68 111.55 25.68C112.857 25.68 113.51 26.1467 113.51 27.08C113.51 27.64 113.31 28.9733 112.91 31.08C112.297 34.1467 111.99 36.28 111.99 37.48C111.99 37.88 112.084 38.2 112.27 38.44C112.484 38.68 112.75 38.8 113.07 38.8C113.577 38.8 114.19 38.48 114.91 37.84C115.63 37.1733 116.604 36.1067 117.83 34.64C118.15 34.2667 118.51 34.08 118.91 34.08C119.257 34.08 119.524 34.24 119.71 34.56C119.924 34.88 120.03 35.32 120.03 35.88C120.03 36.9467 119.777 37.7733 119.27 38.36C118.177 39.72 117.017 40.8667 115.79 41.8C114.564 42.7333 113.377 43.2 112.23 43.2C111.35 43.2 110.537 42.9067 109.79 42.32C109.07 41.7067 108.524 40.88 108.15 39.84C106.764 42.08 105.017 43.2 102.91 43.2ZM104.35 39.16C104.937 39.16 105.497 38.8133 106.03 38.12C106.564 37.4267 106.95 36.5067 107.19 35.36L108.67 28C107.55 28.0267 106.51 28.4533 105.55 29.28C104.617 30.08 103.87 31.1467 103.31 32.48C102.75 33.8133 102.47 35.2267 102.47 36.72C102.47 37.5467 102.63 38.16 102.95 38.56C103.297 38.96 103.764 39.16 104.35 39.16ZM119.619 43.2C118.606 43.2 117.886 42.6667 117.459 41.6C117.059 40.5333 116.859 38.8267 116.859 36.48C116.859 33.0133 117.353 29.72 118.339 26.6C118.579 25.8267 118.966 25.2667 119.499 24.92C120.059 24.5467 120.833 24.36 121.819 24.36C122.353 24.36 122.726 24.4267 122.939 24.56C123.153 24.6933 123.259 24.9467 123.259 25.32C123.259 25.7467 123.059 26.7067 122.659 28.2C122.393 29.2667 122.179 30.2 122.019 31C121.859 31.8 121.726 32.7867 121.619 33.96C122.499 31.6667 123.486 29.8 124.579 28.36C125.673 26.92 126.739 25.8933 127.779 25.28C128.846 24.6667 129.819 24.36 130.699 24.36C132.433 24.36 133.299 25.2267 133.299 26.96C133.299 28 133.006 29.88 132.419 32.6C131.913 34.92 131.659 36.4533 131.659 37.2C131.659 38.2667 132.046 38.8 132.819 38.8C133.353 38.8 133.979 38.48 134.699 37.84C135.446 37.1733 136.433 36.1067 137.659 34.64C137.979 34.2667 138.339 34.08 138.739 34.08C139.086 34.08 139.353 34.24 139.539 34.56C139.753 34.88 139.859 35.32 139.859 35.88C139.859 36.9467 139.606 37.7733 139.099 38.36C137.953 39.7733 136.713 40.9333 135.379 41.84C134.073 42.7467 132.579 43.2 130.899 43.2C129.539 43.2 128.513 42.8133 127.819 42.04C127.126 41.24 126.779 40.0933 126.779 38.6C126.779 37.8533 126.966 36.52 127.339 34.6C127.686 32.92 127.859 31.76 127.859 31.12C127.859 30.6933 127.713 30.48 127.419 30.48C127.073 30.48 126.579 30.9333 125.939 31.84C125.326 32.72 124.686 33.8933 124.019 35.36C123.379 36.8267 122.859 38.3733 122.459 40C122.166 41.2533 121.819 42.1067 121.419 42.56C121.046 42.9867 120.446 43.2 119.619 43.2ZM159.343 34.08C159.69 34.08 159.956 34.24 160.143 34.56C160.356 34.88 160.463 35.32 160.463 35.88C160.463 36.9467 160.21 37.7733 159.703 38.36C158.61 39.6933 157.41 40.84 156.103 41.8C154.796 42.7333 153.503 43.2 152.223 43.2C150.196 43.2 148.65 42.0133 147.583 39.64C146.463 41.0533 145.476 42 144.623 42.48C143.796 42.96 142.823 43.2 141.703 43.2C140.076 43.2 138.73 42.6 137.663 41.4C136.623 40.1733 136.103 38.5867 136.103 36.64C136.103 34.5067 136.556 32.5333 137.463 30.72C138.37 28.88 139.61 27.3867 141.183 26.24C142.783 25.0667 144.57 24.3733 146.543 24.16C147.05 18.9867 148.01 14.5733 149.423 10.92C150.863 7.24 152.743 5.4 155.063 5.4C156.21 5.4 157.156 5.92 157.903 6.96C158.676 8 159.063 9.57333 159.063 11.68C159.063 14.6667 158.33 18.16 156.863 22.16C155.396 26.16 153.436 30.2667 150.983 34.48C151.09 36.0267 151.316 37.1333 151.663 37.8C152.036 38.4667 152.503 38.8 153.063 38.8C153.783 38.8 154.516 38.48 155.263 37.84C156.01 37.2 157.01 36.1333 158.263 34.64C158.583 34.2667 158.943 34.08 159.343 34.08ZM154.623 9.32C154.116 9.32 153.61 10.2267 153.103 12.04C152.596 13.8267 152.156 16.1733 151.783 19.08C151.436 21.9867 151.183 25.0267 151.023 28.2C154.01 21.6933 155.503 16.4667 155.503 12.52C155.503 11.5067 155.41 10.72 155.223 10.16C155.063 9.6 154.863 9.32 154.623 9.32ZM143.103 39.16C143.61 39.16 144.116 38.96 144.623 38.56C145.13 38.1333 145.77 37.36 146.543 36.24C146.276 34.8 146.143 33.1867 146.143 31.4C146.143 30.76 146.17 29.72 146.223 28.28C144.756 28.7333 143.53 29.72 142.543 31.24C141.583 32.7333 141.103 34.4 141.103 36.24C141.103 38.1867 141.77 39.16 143.103 39.16ZM175.049 34.08C175.396 34.08 175.662 34.24 175.849 34.56C176.062 34.88 176.169 35.32 176.169 35.88C176.169 36.9467 175.916 37.7733 175.409 38.36C174.422 39.56 173.022 40.6667 171.209 41.68C169.422 42.6933 167.502 43.2 165.449 43.2C162.649 43.2 160.476 42.44 158.929 40.92C157.382 39.4 156.609 37.32 156.609 34.68C156.609 32.84 156.996 31.1333 157.769 29.56C158.542 27.96 159.609 26.6933 160.969 25.76C162.356 24.8267 163.916 24.36 165.649 24.36C167.196 24.36 168.436 24.8267 169.369 25.76C170.302 26.6667 170.769 27.9067 170.769 29.48C170.769 31.32 170.102 32.9067 168.769 34.24C167.462 35.5467 165.236 36.5867 162.089 37.36C162.756 38.5867 164.022 39.2 165.889 39.2C167.089 39.2 168.449 38.7867 169.969 37.96C171.516 37.1067 172.849 36 173.969 34.64C174.289 34.2667 174.649 34.08 175.049 34.08ZM164.969 28.28C163.982 28.28 163.142 28.8533 162.449 30C161.782 31.1467 161.449 32.5333 161.449 34.16V34.24C163.022 33.8667 164.262 33.3067 165.169 32.56C166.076 31.8133 166.529 30.9467 166.529 29.96C166.529 29.4533 166.382 29.0533 166.089 28.76C165.822 28.44 165.449 28.28 164.969 28.28ZM175.752 43.2C174.739 43.2 174.019 42.6667 173.592 41.6C173.192 40.5333 172.992 38.8267 172.992 36.48C172.992 33.0133 173.486 29.72 174.472 26.6C174.712 25.8267 175.099 25.2667 175.632 24.92C176.192 24.5467 176.966 24.36 177.952 24.36C178.486 24.36 178.859 24.4267 179.072 24.56C179.286 24.6933 179.392 24.9467 179.392 25.32C179.392 25.7467 179.192 26.7067 178.792 28.2C178.526 29.2667 178.312 30.2 178.152 31C177.992 31.8 177.859 32.7867 177.752 33.96C178.632 31.6667 179.619 29.8 180.712 28.36C181.806 26.92 182.872 25.8933 183.912 25.28C184.979 24.6667 185.952 24.36 186.832 24.36C188.566 24.36 189.432 25.2267 189.432 26.96C189.432 27.3067 189.312 28.1467 189.072 29.48C188.859 30.5467 188.752 31.2133 188.752 31.48C188.752 32.4133 189.086 32.88 189.752 32.88C190.499 32.88 191.459 32.2933 192.632 31.12C192.979 30.7733 193.339 30.6 193.712 30.6C194.059 30.6 194.326 30.76 194.512 31.08C194.726 31.3733 194.832 31.7733 194.832 32.28C194.832 33.2667 194.566 34.04 194.032 34.6C193.286 35.3733 192.406 36.04 191.392 36.6C190.406 37.1333 189.352 37.4 188.232 37.4C186.819 37.4 185.739 37.04 184.992 36.32C184.272 35.6 183.912 34.6267 183.912 33.4C183.912 33 183.952 32.6 184.032 32.2C184.086 31.6667 184.112 31.3067 184.112 31.12C184.112 30.6933 183.966 30.48 183.672 30.48C183.272 30.48 182.739 30.9333 182.072 31.84C181.432 32.72 180.792 33.8933 180.152 35.36C179.512 36.8267 178.992 38.3733 178.592 40C178.299 41.2533 177.952 42.1067 177.552 42.56C177.179 42.9867 176.579 43.2 175.752 43.2ZM206.275 34.08C206.622 34.08 206.889 34.24 207.075 34.56C207.289 34.88 207.395 35.32 207.395 35.88C207.395 36.9467 207.142 37.7733 206.635 38.36C205.489 39.7733 204.235 40.9333 202.875 41.84C201.542 42.7467 200.022 43.2 198.315 43.2C195.969 43.2 194.222 42.1333 193.075 40C191.955 37.8667 191.395 35.1067 191.395 31.72C191.395 28.4667 191.809 24.76 192.635 20.6C193.489 16.44 194.729 12.8667 196.355 9.88C198.009 6.89333 199.969 5.4 202.235 5.4C203.515 5.4 204.515 6 205.235 7.2C205.982 8.37333 206.355 10.0667 206.355 12.28C206.355 15.4533 205.475 19.1333 203.715 23.32C201.955 27.5067 199.569 31.6533 196.555 35.76C196.742 36.8533 197.049 37.64 197.475 38.12C197.902 38.5733 198.462 38.8 199.155 38.8C200.249 38.8 201.209 38.4933 202.035 37.88C202.862 37.24 203.915 36.16 205.195 34.64C205.515 34.2667 205.875 34.08 206.275 34.08ZM201.355 9.36C200.742 9.36 200.049 10.4667 199.275 12.68C198.502 14.8933 197.822 17.64 197.235 20.92C196.649 24.2 196.329 27.3467 196.275 30.36C198.169 27.24 199.675 24.12 200.795 21C201.915 17.8533 202.475 14.9867 202.475 12.4C202.475 10.3733 202.102 9.36 201.355 9.36ZM208.242 43.2C207.042 43.2 206.056 42.6533 205.282 41.56C204.536 40.44 204.162 39.0533 204.162 37.4C204.162 35.4 204.296 33.5733 204.562 31.92C204.829 30.24 205.269 28.4667 205.882 26.6C206.149 25.8 206.522 25.2267 207.002 24.88C207.482 24.5333 208.242 24.36 209.282 24.36C209.869 24.36 210.269 24.4533 210.482 24.64C210.722 24.8267 210.842 25.1067 210.842 25.48C210.842 25.6933 210.696 26.4133 210.402 27.64C210.136 28.6267 209.922 29.52 209.762 30.32C209.229 33.12 208.962 34.9867 208.962 35.92C208.962 36.48 209.029 36.88 209.162 37.12C209.296 37.3333 209.509 37.44 209.802 37.44C210.202 37.44 210.696 37.04 211.282 36.24C211.896 35.44 212.536 34.2267 213.202 32.6C213.896 30.9733 214.562 28.9733 215.202 26.6C215.416 25.8 215.736 25.2267 216.162 24.88C216.616 24.5333 217.282 24.36 218.162 24.36C218.776 24.36 219.202 24.44 219.442 24.6C219.682 24.7333 219.802 25 219.802 25.4C219.802 26.0667 219.469 27.8933 218.802 30.88C218.056 34.2933 217.682 36.4 217.682 37.2C217.682 37.7067 217.789 38.1067 218.002 38.4C218.216 38.6667 218.496 38.8 218.842 38.8C219.376 38.8 220.002 38.48 220.722 37.84C221.469 37.1733 222.456 36.1067 223.682 34.64C224.002 34.2667 224.362 34.08 224.762 34.08C225.109 34.08 225.376 34.24 225.562 34.56C225.776 34.88 225.882 35.32 225.882 35.88C225.882 36.9467 225.629 37.7733 225.122 38.36C223.976 39.7733 222.736 40.9333 221.402 41.84C220.096 42.7467 218.602 43.2 216.922 43.2C215.642 43.2 214.696 42.7067 214.082 41.72C213.496 40.7333 213.202 39.3467 213.202 37.56C212.749 39.3733 212.069 40.7733 211.162 41.76C210.256 42.72 209.282 43.2 208.242 43.2ZM230.079 44.08C228.692 44.08 227.625 43.76 226.879 43.12C226.159 42.48 225.799 41.76 225.799 40.96C225.799 40.2667 226.052 39.6667 226.559 39.16C227.065 38.6533 227.812 38.4 228.799 38.4C229.145 38.4 229.545 38.44 229.999 38.52C230.479 38.5733 230.839 38.6133 231.079 38.64C231.052 37.9467 230.892 37.2933 230.599 36.68C230.332 36.0667 229.985 35.48 229.559 34.92C229.132 34.3333 228.732 33.8267 228.359 33.4C227.532 34.9733 226.705 36.28 225.879 37.32C225.079 38.36 224.199 39.3467 223.239 40.28C222.759 40.76 222.252 41 221.719 41C221.292 41 220.945 40.8533 220.679 40.56C220.412 40.24 220.279 39.8533 220.279 39.4C220.279 38.8667 220.465 38.3733 220.839 37.92L221.359 37.28C222.825 35.4667 223.932 33.9733 224.679 32.8C225.132 32.0267 225.665 31 226.279 29.72C226.892 28.4133 227.492 27.0667 228.079 25.68C228.585 24.5067 229.639 23.92 231.239 23.92C231.985 23.92 232.505 23.9867 232.799 24.12C233.092 24.2533 233.239 24.4667 233.239 24.76C233.239 24.92 233.185 25.1733 233.079 25.52C232.972 25.8667 232.825 26.2133 232.639 26.56C232.159 27.52 231.919 28.3333 231.919 29C231.919 29.4 232.052 29.84 232.319 30.32C232.612 30.8 233.052 31.4 233.639 32.12C234.492 33.24 235.132 34.2 235.559 35C236.012 35.7733 236.239 36.6267 236.239 37.56C236.239 37.8267 236.212 38.2 236.159 38.68C237.465 38.1733 238.999 36.8267 240.759 34.64C241.079 34.2667 241.439 34.08 241.839 34.08C242.185 34.08 242.452 34.24 242.639 34.56C242.852 34.88 242.959 35.32 242.959 35.88C242.959 36.8933 242.705 37.72 242.199 38.36C240.865 40.0133 239.585 41.1467 238.359 41.76C237.159 42.3467 235.665 42.6667 233.879 42.72C232.812 43.6267 231.545 44.08 230.079 44.08ZM246.309 28.16C246.256 29.4933 246.229 30.5333 246.229 31.28C246.229 33.2 246.322 34.7067 246.509 35.8C246.722 36.8667 247.056 37.64 247.509 38.12C247.989 38.5733 248.642 38.8 249.469 38.8C249.896 38.8 250.402 38.6667 250.989 38.4C251.576 38.1333 252.109 37.7867 252.589 37.36C252.882 37.0933 253.176 36.96 253.469 36.96C253.789 36.96 254.042 37.1467 254.229 37.52C254.442 37.8667 254.549 38.2933 254.549 38.8C254.549 39.3067 254.442 39.8 254.229 40.28C254.042 40.76 253.749 41.16 253.349 41.48C251.962 42.6267 250.389 43.2 248.629 43.2C246.096 43.2 244.242 42.1467 243.069 40.04C241.896 37.9067 241.309 35.1333 241.309 31.72C241.309 30.5467 241.349 29.36 241.429 28.16H239.869C239.069 28.16 238.522 28.0133 238.229 27.72C237.962 27.4267 237.829 26.96 237.829 26.32C237.829 24.8267 238.429 24.08 239.629 24.08H241.909C242.362 21.1467 243.056 18.4667 243.989 16.04C244.922 13.6133 246.042 11.68 247.349 10.24C248.682 8.8 250.109 8.08 251.629 8.08C252.749 8.08 253.629 8.57333 254.269 9.56C254.909 10.5467 255.229 11.7867 255.229 13.28C255.229 17.4133 253.496 21.0133 250.029 24.08H254.509C254.936 24.08 255.242 24.1733 255.429 24.36C255.616 24.5467 255.709 24.8933 255.709 25.4C255.709 27.24 254.202 28.16 251.189 28.16H246.309ZM250.549 11.92C250.149 11.92 249.696 12.4267 249.189 13.44C248.709 14.4267 248.242 15.8133 247.789 17.6C247.362 19.36 247.002 21.32 246.709 23.48C248.282 22.12 249.456 20.6 250.229 18.92C251.029 17.2133 251.429 15.6667 251.429 14.28C251.429 12.7067 251.136 11.92 250.549 11.92Z" fill="#F1BB78"/>
<path fill-rule="evenodd" clip-rule="evenodd" d="M10.4302 4.38764C8.68545 5.60759 7.10777 7.04997 5.73819 8.67365C11.3349 8.15406 18.4453 9.00249 26.7004 13.1301C35.5158 17.5377 42.6143 17.6867 47.5546 16.7337C47.1063 15.3766 46.5419 14.0722 45.8735 12.8322C40.2182 13.4286 32.9682 12.6391 24.519 8.4146C19.1536 5.73192 14.4241 4.62684 10.4302 4.38764ZM42.57 8.13006C38.104 3.14024 31.6139 0 24.3902 0C22.2689 0 20.2106 0.270862 18.2484 0.779854C20.9059 1.50498 23.7291 2.56584 26.7004 4.05154C32.8865 7.14454 38.2273 8.14043 42.57 8.13006ZM48.6108 21.4977C42.6425 22.6762 34.4009 22.4341 24.519 17.4931C15.2804 12.8739 7.92735 12.932 2.96817 14.0341C2.7122 14.0909 2.46224 14.1507 2.21833 14.2129C1.56905 15.625 1.05077 17.1098 0.678905 18.6518C1.07608 18.5457 1.4865 18.4448 1.90995 18.3507C7.92631 17.0138 16.4269 17.0718 26.7004 22.2086C35.9391 26.8279 43.2921 26.7697 48.2514 25.6677C48.4213 25.63 48.5887 25.5909 48.7534 25.5507C48.7714 25.1662 48.7804 24.7792 48.7804 24.3902C48.7804 23.4116 48.7229 22.4463 48.6108 21.4977ZM47.957 30.6979C42.0467 31.7312 34.0451 31.3346 24.519 26.5717C15.2804 21.9524 7.92735 22.0106 2.96817 23.1127C1.86738 23.3572 0.877121 23.6551 0.00357317 23.9696C0.00119146 24.1095 0 24.2497 0 24.3902C0 37.8606 10.9199 48.7805 24.3902 48.7805C35.6793 48.7805 45.1771 41.1108 47.957 30.6979Z" fill="#F1BB78"/>
</g>
<defs>
<clipPath id="clip0_35_19">
<rect width="203.659" height="50" fill="white"/>
</clipPath>
</defs>
</svg>
